<svg width="1600" height="520" viewBox="0 0 1600 520" fill="none" xmlns="http://www.w3.org/2000/svg">
<defs>
  <linearGradient id="arcGrad" x1="180" y1="90" x2="180" y2="430" gradientUnits="userSpaceOnUse">
    <stop offset="0" stop-color="#150A7A"/>
    <stop offset="0.48" stop-color="#2463FF"/>
    <stop offset="1" stop-color="#00E6FF"/>
  </linearGradient>
  <linearGradient id="nodeGrad" x1="260" y1="185" x2="260" y2="405" gradientUnits="userSpaceOnUse">
    <stop offset="0" stop-color="#00E6FF"/>
    <stop offset="1" stop-color="#2563FF"/>
  </linearGradient>
  <linearGradient id="nsGrad" x1="1030" y1="120" x2="1360" y2="300" gradientUnits="userSpaceOnUse">
    <stop offset="0" stop-color="#2563FF"/>
    <stop offset="1" stop-color="#00D4FF"/>
  </linearGradient>
</defs>
<g id="ArcNS-primary-logo">
  <g id="emblem" transform="translate(70,45)">
    <path d="M115 365 C108 260 150 115 260 55 C370 115 412 260 405 365" stroke="url(#arcGrad)" stroke-width="48" stroke-linecap="round"/>
    <path d="M70 390 C145 350 205 342 260 342 C315 342 375 350 450 390" stroke="url(#arcGrad)" stroke-width="24" stroke-linecap="round"/>
    <circle cx="260" cy="190" r="27" fill="url(#nodeGrad)"/>
    <rect x="248" y="215" width="24" height="96" rx="12" fill="url(#nodeGrad)"/>
    <circle cx="260" cy="342" r="34" fill="white" stroke="url(#nodeGrad)" stroke-width="16"/>
  </g>
  <text x="590" y="270" font-family="Space Grotesk, Inter, Arial, sans-serif" font-size="190" font-weight="500" letter-spacing="-8" fill="#07112F">Arc</text>
  <text x="940" y="270" font-family="Space Grotesk, Inter, Arial, sans-serif" font-size="190" font-weight="500" letter-spacing="-8" fill="url(#nsGrad)">NS</text>
  <text x="604" y="365" font-family="Inter, Arial, sans-serif" font-size="48" font-weight="500" letter-spacing="20" fill="#6E7B96">Arc Name Service</text>
</g>
</svg>